<svg width="585" height="156" viewBox="0 0 585 156" fill="none" xmlns="http://www.w3.org/2000/svg">
<path d="M118.585 121V33.7273H176.369V48.9403H137.037V69.7358H172.534V84.9489H137.037V121H118.585ZM207.232 33.7273V121H188.781V33.7273H207.232ZM222.413 33.7273H245.169L269.203 92.3636H270.226L294.26 33.7273H317.016V121H299.118V64.196H298.393L275.808 120.574H263.621L241.036 63.983H240.311V121H222.413V33.7273ZM412.417 77.3636C412.417 86.8807 410.613 94.9773 407.005 101.653C403.425 108.33 398.539 113.429 392.346 116.952C386.181 120.446 379.249 122.193 371.55 122.193C363.795 122.193 356.835 120.432 350.67 116.909C344.505 113.386 339.633 108.287 336.053 101.611C332.474 94.9347 330.684 86.8523 330.684 77.3636C330.684 67.8466 332.474 59.75 336.053 53.0739C339.633 46.3977 344.505 41.3125 350.67 37.8182C356.835 34.2955 363.795 32.5341 371.55 32.5341C379.249 32.5341 386.181 34.2955 392.346 37.8182C398.539 41.3125 403.425 46.3977 407.005 53.0739C410.613 59.75 412.417 67.8466 412.417 77.3636ZM393.71 77.3636C393.71 71.1989 392.786 66 390.94 61.767C389.121 57.5341 386.55 54.3239 383.227 52.1364C379.903 49.9489 376.011 48.8551 371.55 48.8551C367.09 48.8551 363.198 49.9489 359.874 52.1364C356.55 54.3239 353.965 57.5341 352.119 61.767C350.3 66 349.391 71.1989 349.391 77.3636C349.391 83.5284 350.3 88.7273 352.119 92.9602C353.965 97.1932 356.55 100.403 359.874 102.591C363.198 104.778 367.09 105.872 371.55 105.872C376.011 105.872 379.903 104.778 383.227 102.591C386.55 100.403 389.121 97.1932 390.94 92.9602C392.786 88.7273 393.71 83.5284 393.71 77.3636ZM473.429 58.8267C473.088 55.3892 471.625 52.7187 469.04 50.8153C466.455 48.9119 462.946 47.9602 458.514 47.9602C455.503 47.9602 452.96 48.3864 450.886 49.2386C448.813 50.0625 447.222 51.2131 446.114 52.6903C445.034 54.1676 444.494 55.8438 444.494 57.7188C444.438 59.2813 444.764 60.6449 445.474 61.8097C446.213 62.9744 447.222 63.983 448.5 64.8352C449.778 65.6591 451.256 66.3835 452.932 67.0085C454.608 67.6051 456.398 68.1165 458.301 68.5426L466.142 70.4176C469.949 71.2699 473.443 72.4062 476.625 73.8267C479.807 75.2472 482.563 76.9943 484.892 79.0682C487.222 81.142 489.026 83.5852 490.304 86.3977C491.611 89.2102 492.278 92.4347 492.307 96.071C492.278 101.412 490.915 106.043 488.216 109.963C485.545 113.855 481.682 116.881 476.625 119.04C471.597 121.17 465.531 122.236 458.429 122.236C451.384 122.236 445.247 121.156 440.02 118.997C434.821 116.838 430.759 113.642 427.832 109.409C424.935 105.148 423.415 99.8778 423.273 93.5994H441.128C441.327 96.5256 442.165 98.9687 443.642 100.929C445.148 102.861 447.151 104.324 449.651 105.318C452.179 106.284 455.034 106.767 458.216 106.767C461.341 106.767 464.054 106.312 466.355 105.403C468.685 104.494 470.489 103.23 471.767 101.611C473.045 99.9915 473.685 98.1307 473.685 96.0284C473.685 94.0682 473.102 92.4205 471.938 91.0852C470.801 89.75 469.125 88.6136 466.909 87.6761C464.722 86.7386 462.037 85.8864 458.855 85.1193L449.352 82.733C441.994 80.9432 436.185 78.1449 431.923 74.3381C427.662 70.5312 425.545 65.4034 425.574 58.9545C425.545 53.6705 426.952 49.054 429.793 45.1051C432.662 41.1562 436.597 38.0739 441.597 35.858C446.597 33.642 452.278 32.5341 458.642 32.5341C465.119 32.5341 470.773 33.642 475.602 35.858C480.46 38.0739 484.239 41.1562 486.938 45.1051C489.636 49.054 491.028 53.6278 491.114 58.8267H473.429ZM517.768 121H497.996L528.124 33.7273H551.902L581.987 121H562.214L540.354 53.6705H539.672L517.768 121ZM516.533 86.696H563.237V101.099H516.533V86.696Z" fill="#333333"/>
<path d="M89.7115 109.35C94.7632 104.967 98.3247 99.1196 99.9015 92.62C101.321 86.25 100.251 79.91 96.3515 75.14L97.1615 76.14C104.461 85.13 101.151 100.01 89.7115 109.35Z" fill="#002F6C"/>
<path d="M47.4315 57.54L26.0815 31.11C19.7015 23.21 23.8415 9.28 35.3415 0L56.0015 25.58C59.3815 29.77 60.0015 35.58 58.2015 41.53C56.1699 47.7642 52.4403 53.3085 47.4315 57.54Z" fill="#002F6C"/>
<path d="M32.1415 156.01C28.2715 151.22 27.2315 144.88 28.6815 138.51C30.4486 131.502 34.4937 125.279 40.1815 120.82L75.5015 92.31C80.563 87.9562 84.148 82.1384 85.7615 75.66C87.2215 69.3 86.1815 62.95 82.3115 58.16L96.3115 75.53C100.181 80.32 101.211 86.66 99.7615 93.03C98.1504 99.5066 94.5648 105.322 89.5015 109.67C89.1015 110.03 88.6815 110.38 88.2615 110.72L32.1415 156.01Z" fill="#002F6C"/>
<path d="M4.08149 121.29C0.211493 116.49 -0.828507 110.15 0.631493 103.78C2.39856 96.7719 6.44373 90.5493 12.1315 86.09L47.4515 57.57C52.515 53.2179 56.1004 47.3995 57.7115 40.92C59.1615 34.56 58.1315 28.22 54.2615 23.42L68.2615 40.79C72.1315 45.58 73.1715 51.93 71.7215 58.29C70.1008 64.7594 66.5124 70.5664 61.4515 74.91C61.0515 75.26 60.6415 75.61 60.2115 75.96L4.08149 121.29Z" fill="#002F6C"/>
</svg>
