<svg id="Layer_1" data-name="Layer 1" xmlns="http://www.w3.org/2000/svg" viewBox="0 0 600 600"><path d="M100.81,331.34l0,0A32.2,32.2,0,0,0,111,314.61c1.42-6.37.35-12.71-3.55-17.48l.81,1C115.56,307.12,112.25,322,100.81,331.34Z" style="fill:#002f6c"/><path d="M58.53,279.53,37.18,253.1c-6.38-7.9-2.24-21.83,9.26-31.11L67.1,247.57c3.38,4.19,4,10,2.2,15.95A35.26,35.26,0,0,1,58.53,279.53Z" style="fill:#002f6c"/><path d="M43.24,378c-3.87-4.79-4.91-11.13-3.46-17.5a32.61,32.61,0,0,1,11.5-17.69L86.6,314.3l0,0a32.24,32.24,0,0,0,10.26-16.65c1.46-6.36.42-12.71-3.45-17.5l14,17.37c3.87,4.79,4.9,11.13,3.45,17.5a32.17,32.17,0,0,1-10.26,16.64c-.4.36-.82.71-1.24,1.05Z" style="fill:#002f6c"/><path d="M15.18,343.28c-3.87-4.8-4.91-11.14-3.45-17.51a32.61,32.61,0,0,1,11.5-17.69l35.32-28.52,0,0a32.2,32.2,0,0,0,10.26-16.65c1.45-6.36.42-12.7-3.45-17.5l14,17.37c3.87,4.79,4.91,11.14,3.46,17.5A32.22,32.22,0,0,1,72.55,296.9c-.4.35-.81.7-1.24,1.05Z" style="fill:#002f6c"/><text transform="translate(115.9 346.72)" style="font-size:118.19176483154297px;fill:#333;font-family:HelveticaRounded-Bold, Helvetica Rounded;font-weight:700">FIMOSA</text></svg>